<svg xmlns="http://www.w3.org/2000/svg" fill="white" viewBox="0 0 24 24">
  <path d="M12 0C5.372 0 0 5.372 0 12c0 5.303 3.438 9.8 8.205 11.387.6.111.82-.261.82-.577v-2.042c-3.338.725-4.033-1.415-4.033-1.415-.546-1.387-1.333-1.756-1.333-1.756-1.089-.744.083-.729.083-.729 1.205.084 1.839 1.238 1.839 1.238 1.07 1.834 2.807 1.304 3.492.997.108-.775.418-1.304.762-1.604-2.665-.303-5.467-1.332-5.467-5.931 0-1.31.469-2.381 1.236-3.222-.123-.303-.536-1.524.117-3.176 0 0 1.008-.322 3.301 1.23.957-.266 1.984-.399 3.003-.404 1.018.005 2.045.138 3.003.404 2.291-1.552 3.297-1.23 3.297-1.23.655 1.653.242 2.874.12 3.176.77.841 1.236 1.912 1.236 3.222 0 4.61-2.807 5.625-5.479 5.921.43.372.823 1.102.823 2.222v3.293c0 .319.218.694.825.576C20.565 21.796 24 17.3 24 12c0-6.628-5.373-12-12-12z"></path>
</svg>
