<svg xmlns="http://www.w3.org/2000/svg" fill="white" viewBox="0 0 24 24">
  <path d="M19 0h-14c-2.76 0-5 2.24-5 5v14c0 2.76 2.24 5 5 5h14c2.762 0 5-2.238 5-5v-14c0-2.76-2.238-5-5-5zm-11 19h-3v-10h3v10zm-1.5-11.27c-.966 0-1.75-.784-1.75-1.75s.784-1.75 1.75-1.75 1.75.784 1.75 1.75-.784 1.75-1.75 1.75zm13.5 11.27h-3v-5.5c0-1.378-1.122-2.5-2.5-2.5s-2.5 1.122-2.5 2.5v5.5h-3v-10h3v1.367c.832-1.182 2.507-1.37 3.625-.367s1.375 2.507.367 3.625v5.375h3v-10h-3v1.367c.832-1.182 2.507-1.37 3.625-.367s1.375 2.507.367 3.625v5.375z"></path>
</svg>
