   <svg xmlns="http://www.w3.org/2000/svg" fill="white" viewBox="0 0 24 24">
      <path d="M19 0h-14C2.238 0 0 2.238 0 5v14c0 
         2.762 2.238 5 5 5h14c2.762 0 5-2.238 
         5-5V5c0-2.762-2.238-5-5-5zM7 
         19H4V9h3v10zM5.5 7.5C4.672 7.5 4 
         6.828 4 6s.672-1.5 1.5-1.5S7 
         5.172 7 6s-.672 1.5-1.5 1.5zM20 
         19h-3v-5.5c0-1.378-.672-2.5-2-2.5s-2 
         1.122-2 2.5V19h-3V9h3v1.382C14.203 
         9.537 15.36 9 16.5 9c2.5 0 3.5 
         1.916 3.5 4.5V19z"/>
    </svg>